<svg width="90" height="89" fill="none" xmlns="http://www.w3.org/2000/svg"><path d="M4.226 3.78h81.665v80.854H4.226V3.779z" fill="url(#paint0_radial)"/><path d="M4.226 3.78h81.665v80.854H4.226V3.779zM.513 88.412h89.073V0H.513v88.413zM60.58 36.285c-2.928 0-3.927 1.508-3.927 2.761 0 1.363.66 2.308 4.605 4.38 5.82 2.87 7.64 5.632 7.64 9.666 0 6.05-4.534 9.302-10.657 9.302-3.23 0-6.015-.672-7.604-1.617-.268-.109-.303-.309-.303-.6V54.6c0-.381.178-.49.446-.308a13.66 13.66 0 007.461 2.235c2.928 0 4.16-1.254 4.16-2.944 0-1.363-.858-2.562-4.606-4.542-5.266-2.562-7.462-5.16-7.462-9.521 0-4.87 3.75-8.921 10.247-8.921 3.195 0 5.426.49 6.64 1.053.303.182.375.491.375.763v5.179c0 .309-.179.49-.553.381-1.643-1.053-4.053-1.69-6.462-1.69zm-31.917 4.488c.857.072 1.517.072 2.999.072 4.338 0 8.425-1.544 8.425-7.558 0-4.797-2.927-7.214-7.872-7.214-1.481 0-2.891.073-3.57.11l.018 14.59zm-6.622-20.06c0-.272.517-.454.82-.454 2.375-.109 5.91-.182 9.569-.182 10.281 0 14.298 5.742 14.298 13.064 0 9.594-6.837 13.718-15.227 13.718-1.41 0-1.892-.072-2.891-.072v14.499c0 .309-.107.454-.447.454h-5.676c-.303 0-.446-.109-.446-.454V20.713z" fill="#31C5F0"/><defs><radialGradient id="paint0_radial" cx="0" cy="0" r="1" gradientUnits="userSpaceOnUse" gradientTransform="matrix(62.0565 0 0 61.1565 31.13 21.92)"><stop stop-color="#34364E" stop-opacity=".98"/><stop offset="1" stop-color="#0C0824"/></radialGradient></defs></svg>