<svg width="91" height="89" fill="none" xmlns="http://www.w3.org/2000/svg"><path d="M4.585 3.783h81.76v81.005H4.585V3.783z" fill="url(#paint0_radial)"/><path d="M4.585 3.784h81.76v81.005H4.585V3.784zM.869 88.572h89.21V0H.869v88.572zM59.3 31.58c0-.31.108-.455.447-.455h5.841c.304 0 .447.11.447.455v29.87c0 .309-.072.454-.447.454h-5.77c-.375 0-.482-.182-.482-.49V31.58H59.3zm-.41-8.605c0-2.42 1.679-3.856 3.786-3.856 2.27 0 3.787 1.546 3.787 3.856 0 2.492-1.59 3.857-3.858 3.857-2.143.018-3.715-1.346-3.715-3.857zM42.17 44.022c-1.037-4.202-3.502-13.352-4.43-17.79h-.072c-.786 4.42-2.751 11.915-4.305 17.79h8.806zm-10.326 6.13l-2.93 11.352c-.07.31-.178.382-.553.382h-5.466c-.375 0-.447-.11-.375-.564l10.557-37.619c.179-.673.304-1.292.375-3.147 0-.273.107-.382.304-.382h7.806c.268 0 .375.073.447.382l11.825 40.839c.072.31 0 .491-.303.491h-6.163c-.304 0-.483-.073-.554-.346l-3.055-11.387H31.844z" fill="#FF7F18"/><defs><radialGradient id="paint0_radial" cx="0" cy="0" r="1" gradientUnits="userSpaceOnUse" gradientTransform="matrix(62.1406 0 0 61.2673 31.54 21.96)"><stop stop-color="#423325" stop-opacity=".98"/><stop offset="1" stop-color="#1C0A00"/></radialGradient></defs></svg>