<svg xmlns="http://www.w3.org/2000/svg" width="21" height="21" fill="none"><path d="M9.474 1.213c.3-.92 1.601-.92 1.901 0l1.751 5.374a1 1 0 00.951.69h5.661c.97 0 1.372 1.242.587 1.81l-4.575 3.315a1 1 0 00-.364 1.12l1.748 5.366c.3.921-.753 1.688-1.537 1.12l-4.586-3.322a1 1 0 00-1.173 0l-4.586 3.322c-.784.568-1.837-.199-1.537-1.12l1.748-5.366a1 1 0 00-.364-1.12L.524 9.087c-.785-.568-.382-1.81.587-1.81h5.66a1 1 0 00.952-.69l1.75-5.374z" fill="#E5E5E5"/><path d="M4.343 20.159a1.489 1.489 0 01-.215-.1 1.265 1.265 0 01-.387-.448c-.06-.127-.066-.171-.065-.406v-.262l.9-2.741.9-2.741v-.263c0-.242-.006-.274-.074-.41a1.2 1.2 0 00-.176-.25c-.055-.057-1.156-.867-2.445-1.8C1.49 9.803.395 8.993.344 8.937a1.184 1.184 0 01-.158-.242C.127 8.57.12 8.526.12 8.279c0-.26.005-.285.082-.442a1.12 1.12 0 01.524-.5l.145-.058 3.068-.013 3.067-.012.191-.095a.982.982 0 00.445-.42c.026-.05.454-1.34.952-2.866.498-1.527.932-2.822.964-2.877A1.027 1.027 0 0110.6.528c.309.058.578.248.705.5.035.067.465 1.355.956 2.861.49 1.507.915 2.784.943 2.838.077.152.17.257.307.352.274.188-.002.173 3.417.187l3.066.013.169.08c.62.294.785 1.13.316 1.604-.059.058-1.143.856-2.41 1.773-1.438 1.039-2.358 1.721-2.447 1.812a.962.962 0 00-.248.868c.017.066.43 1.346.918 2.844.534 1.64.893 2.78.902 2.866a1.06 1.06 0 01-.329.824 1.407 1.407 0 01-.263.166c-.15.072-.182.078-.425.078-.237 0-.277-.007-.4-.069-.076-.037-1.18-.824-2.454-1.747a218.156 218.156 0 00-2.417-1.74 1.231 1.231 0 00-.271-.102.939.939 0 00-.631.072c-.067.034-1.175.825-2.463 1.759-1.287.933-2.402 1.725-2.477 1.76-.19.089-.528.103-.72.032z" stroke="#000" stroke-width=".005" stroke-linejoin="round"/></svg>