<?xml version="1.0" encoding="UTF-8" standalone="no"?>
<svg
   xmlns:dc="http://purl.org/dc/elements/1.1/"
   xmlns:cc="http://creativecommons.org/ns#"
   xmlns:rdf="http://www.w3.org/1999/02/22-rdf-syntax-ns#"
   xmlns:svg="http://www.w3.org/2000/svg"
   xmlns="http://www.w3.org/2000/svg"
   xmlns:sodipodi="http://sodipodi.sourceforge.net/DTD/sodipodi-0.dtd"
   xmlns:inkscape="http://www.inkscape.org/namespaces/inkscape"
   width="21"
   height="21"
   viewBox="0 0 21 21"
   fill="none"
   version="1.1"
   id="svg862"
   sodipodi:docname="Star.svg"
   inkscape:version="0.92.5 (2060ec1f9f, 2020-04-08)">
  <metadata
     id="metadata868">
    <rdf:RDF>
      <cc:Work
         rdf:about="">
        <dc:format>image/svg+xml</dc:format>
        <dc:type
           rdf:resource="http://purl.org/dc/dcmitype/StillImage" />
      </cc:Work>
    </rdf:RDF>
  </metadata>
  <defs
     id="defs866" />
  <sodipodi:namedview
     pagecolor="#ffffff"
     bordercolor="#666666"
     borderopacity="1"
     objecttolerance="10"
     gridtolerance="10"
     guidetolerance="10"
     inkscape:pageopacity="0"
     inkscape:pageshadow="2"
     inkscape:window-width="1920"
     inkscape:window-height="1024"
     id="namedview864"
     showgrid="false"
     inkscape:zoom="4"
     inkscape:cx="-25.195013"
     inkscape:cy="2.301443"
     inkscape:window-x="0"
     inkscape:window-y="28"
     inkscape:window-maximized="1"
     inkscape:current-layer="svg862" />
  <path
     d="M9.47371 1.2131C9.77356 0.292819 11.0755 0.29282 11.3753 1.2131L13.1264 6.58749C13.2605 6.99912 13.6443 7.2777 14.0772 7.2777H19.738C20.7074 7.2777 21.1097 8.51873 20.3247 9.08749L15.7498 12.4021C15.3984 12.6568 15.2513 13.1091 15.3857 13.5217L17.1343 18.8884C17.4343 19.8092 16.381 20.5762 15.5968 20.0079L11.0112 16.6856C10.6612 16.432 10.1878 16.432 9.8378 16.6856L5.25225 20.0079C4.46799 20.5762 3.4147 19.8092 3.71472 18.8884L5.4633 13.5217C5.59775 13.1091 5.45067 12.6568 5.09921 12.4021L0.524337 9.08749C-0.26067 8.51873 0.141661 7.2777 1.11106 7.2777H6.77181C7.20474 7.2777 7.5885 6.99912 7.72262 6.58749L9.47371 1.2131Z"
     fill="#E5E5E5"
     id="path860" />
  <path
     style="fill:none;fill-opacity:0;stroke:#000000;stroke-width:0.00473004;stroke-linecap:butt;stroke-linejoin:round;stroke-miterlimit:4;stroke-dasharray:none;stroke-dashoffset:0;stroke-opacity:1"
     d="M 4.3432588,20.158658 C 4.2706208,20.131731 4.1736827,20.08652 4.1278403,20.058187 3.9955181,19.976408 3.8143982,19.766926 3.7414556,19.611299 3.6816609,19.483723 3.6745119,19.439629 3.6756423,19.205364 l 0.00127,-0.262813 0.8998037,-2.740763 0.8998047,-2.740763 -8.21e-5,-0.262813 C 5.4763625,12.95631 5.4704144,12.923647 5.4016871,12.787685 5.3606197,12.706443 5.2816389,12.593809 5.2261744,12.537387 5.1707099,12.480966 4.0702448,11.671016 2.7806961,10.737497 1.4911474,9.8039784 0.39466133,8.9943646 0.34406027,8.9383554 0.2934592,8.882346 0.22237739,8.7732198 0.18610068,8.6958525 0.12734253,8.570539 0.12014303,8.5250744 0.12014303,8.2793306 c 0,-0.2609449 0.004421,-0.2848333 0.08179,-0.4419932 C 0.30553498,7.6268921 0.52350029,7.4189388 0.72625008,7.3371044 L 0.87103695,7.2786651 3.9385064,7.2661502 7.0059759,7.2536353 7.1970026,7.1592144 C 7.3964546,7.0606288 7.5537068,6.9121402 7.6424849,6.7385583 7.6676807,6.6892947 8.0957498,5.3996344 8.5937494,3.8726465 9.091749,2.3456588 9.5256065,1.0512515 9.5578769,0.99618594 9.7594637,0.65220437 10.200844,0.45387575 10.599709,0.52805237 c 0.309213,0.0575042 0.578012,0.24767304 0.705394,0.49904823 0.03451,0.068097 0.464515,1.3561282 0.955573,2.8622904 0.491058,1.5061623 0.91564,2.7831838 0.943516,2.8378258 0.0772,0.1513164 0.169059,0.2564786 0.306893,0.3513235 0.274413,0.1888263 -0.0018,0.1736573 3.416567,0.1876099 l 3.06615,0.012515 0.16872,0.079923 c 0.620908,0.2941276 0.785584,1.1298265 0.316077,1.604027 -0.05812,0.058705 -1.14274,0.8566243 -2.410257,1.7731538 -1.437003,1.039083 -2.357787,1.721245 -2.445923,1.81206 -0.221145,0.227865 -0.320896,0.576516 -0.248347,0.868023 0.01646,0.06614 0.429319,1.345896 0.917459,2.843892 0.534424,1.640028 0.893462,2.78039 0.902441,2.866296 0.02894,0.276874 -0.114112,0.635112 -0.328895,0.823645 -0.05506,0.04834 -0.173331,0.123089 -0.262812,0.166119 -0.150415,0.07233 -0.18253,0.07824 -0.425507,0.07824 -0.236289,0 -0.276706,-0.0069 -0.400477,-0.06858 -0.07572,-0.03772 -1.179529,-0.824214 -2.45292,-1.747765 -1.273391,-0.923552 -2.361287,-1.706465 -2.417548,-1.739807 -0.05626,-0.03334 -0.178294,-0.07938 -0.271184,-0.102301 -0.205405,-0.05069 -0.440454,-0.02368 -0.630985,0.07251 -0.067034,0.03384 -1.1750087,0.825147 -2.4621661,1.758457 -1.2871573,0.933309 -2.4022348,1.725766 -2.4779499,1.761016 -0.1891584,0.08806 -0.5272054,0.102653 -0.7202692,0.03108 z"
     id="path870"
     inkscape:connector-curvature="0" />
</svg>
